<?xml version="1.0" encoding="utf-8"?>
<!-- Generator: Adobe Illustrator 19.2.0, SVG Export Plug-In . SVG Version: 6.00 Build 0)  -->
<svg version="1.1" id="Base" xmlns="http://www.w3.org/2000/svg" xmlns:xlink="http://www.w3.org/1999/xlink" x="0px" y="0px"
	 viewBox="0 0 1106.5 177.9" style="enable-background:new 0 0 1106.5 177.9;" xml:space="preserve">
<style type="text/css">
	.st0{fill:#C8C8C8;}
	.st1{font-family:'Barkentina';}
	.st2{font-size:40px;}
	.st3{fill:#4285F4;}
	.st4{font-size:130px;}
	.st5{fill:#DB4437;}
</style>
<g>
	<path d="M212.8,90.4h-6c-0.9,0-1.7,0.7-1.7,1.7v11.5l-0.1,0.1c-3.5,3-8,4.6-12.6,4.6c-10.8,0-19.6-8.8-19.6-19.6
		c0-10.8,8.8-19.6,19.6-19.6c4.2,0,8.2,1.3,11.6,3.9c0.7,0.5,1.6,0.4,2.2-0.1l4.3-4.3c0.3-0.3,0.5-0.8,0.5-1.3
		c0-0.5-0.3-0.9-0.6-1.2c-5.1-4-11.4-6.3-17.9-6.3c-15.9,0-28.9,13-28.9,28.9s13,28.9,28.9,28.9c8.2,0,16.1-3.5,21.6-9.7
		c0.3-0.3,0.4-0.7,0.4-1.1V92.1C214.4,91.2,213.7,90.4,212.8,90.4"/>
	<path d="M413.6,62.5c-0.3-0.5-0.8-0.7-1.4-0.7h-6.5c-0.7,0-1.2,0.4-1.5,1l-18.4,42.8L367,62.8c-0.3-0.6-0.9-1-1.5-1h-6.5
		c-0.6,0-1.1,0.3-1.4,0.7s-0.4,1.1-0.1,1.6l22.7,51.8c0.3,0.6,0.9,1,1.5,1h8.3c0.7,0,1.2-0.4,1.5-1l22.3-51.8
		C414,63.6,413.9,63,413.6,62.5"/>
	<path d="M327.8,62.7c-0.3-0.6-0.9-1-1.5-1H318c-0.7,0-1.2,0.4-1.5,1l-22.3,51.8c-0.2,0.5-0.2,1.1,0.1,1.6c0.3,0.5,0.8,0.7,1.4,0.7
		h6.5c0.7,0,1.2-0.4,1.5-1l18.4-42.8l18.8,42.8c0.3,0.6,0.9,1,1.5,1h6.5c0.6,0,1.1-0.3,1.4-0.7s0.4-1.1,0.1-1.6L327.8,62.7
		L327.8,62.7z"/>
	<path d="M268,97.9l0.4-0.2c6.5-3.1,10.8-9.8,10.8-17.1c0-10.5-8.5-18.9-18.9-18.9h-24c-0.9,0-1.7,0.7-1.7,1.7v51.8
		c0,0.9,0.7,1.7,1.7,1.7h6c0.9,0,1.7-0.7,1.7-1.7V71.1h16.3c5.3,0,9.6,4.3,9.6,9.6c0,4.4-3,8.3-7.3,9.3c-0.8,0.2-1.5,0.3-2.3,0.3h-6
		c-0.6,0-1.2,0.4-1.5,0.9c-0.3,0.6-0.2,1.2,0.1,1.7l17,23.2c0.3,0.4,0.8,0.7,1.3,0.7h7.5c0.6,0,1.2-0.4,1.5-0.9
		c0.3-0.6,0.2-1.2-0.1-1.7L268,97.9L268,97.9z"/>
	<path d="M116,97.5c-5.5-3.6-8.6-6.7-11.3-12.1c-1.9,3.7-6.2,9.3-13.5,13.7c-3.6,11.4-21,33.1-26.7,30c-1.7-0.9-2-2.1-1.6-3.3
		c0.4-3.1,6.8-10.3,6.8-10.3s0.1,1.5,2.2,4.7c-2.7-8.4,4.5-18.8,6.4-22.4c3-0.9,3.2-4.8,3.2-4.8c0.2-6-2.5-10.3-5-12.8
		c1.8,2.3,2.5,5.7,2.5,8.8v0c0,0.4,0,0.7,0,1c-0.1,2.6-0.9,6.2-2.5,6.2v0c-1.7-0.1-3.9,0.3-5.7,0.9l-4.2,1c0,0,2.3-0.1,3.4,0.9
		c-1.3,2.2-4.4,4.9-7.7,6.5c-4.9,2.3-6.3-2.2-3.8-5.2c0.6-0.7,1.2-1.3,1.8-1.8c-0.4-0.4-0.6-0.9-0.7-1.6l0,0c-0.3-1.5-0.1-3.4,2-6.5
		c0.4-0.7,0.9-1.3,1.5-2c0,0,0,0,0.1-0.1c0,0,0.1-0.1,0.1-0.1c0,0,0,0,0-0.1c0.1-0.2,0.3-0.3,0.5-0.5c2.5-2.6,6.5-5.2,12.7-7.6
		c7.3-10.7,10-12.7,10-12.7c0.8-0.8,2.2-1.8,2.7-2.1c-3.8-6.6-4.6-15.9-3.6-18.4c-0.1,0.1-0.1,0.3-0.2,0.4c0.4-0.9,0.6-1.1,1-1.6
		c1-1.2,4.6-1.9,5.8,0.7c0.7,1.4,0.8,3.2,0.8,4.5c-2.8-0.1-5.3,3.1-5.3,3.1S90,53,92.9,53c0,0,0.8,0.7,1.7,1.9
		c-1.3,2.4-3.4,7.6-1.9,12.9c0.3,1.1,0.7,2,1.1,2.8c0,0,0,0.1,0.1,0.1c0,0.1,0.1,0.1,0.1,0.1c2.5,3.8,7.2,4.3,7.2,4.3
		c-2.2-1.1-4-2.8-5.1-4.9c-0.6-1.1-1-2.1-1.2-2.8c-1.2-4.7,0.6-7.5,1.6-9.4c2.4-3.7,6.7-5.9,11.4-5.4c6.5,0.7,11.3,6.7,10.5,13.2
		c-0.4,4-2.8,7.3-6.1,9.1c0.8,2.1-0.1,4.7-0.1,4.7c2,2.5,2.1,3.9,2,5.3c-2.5-0.4-5,1.3-5,1.3s4.9-1.2,7.7,1.4c1.8,2,3.1,3.8,3.8,5.1
		c1,1.9,5.9,2,5.4,5.4C125.5,101.3,121.8,101.3,116,97.5 M87.7,36.6c-28.9,0-52.3,23.4-52.3,52.3s23.4,52.3,52.3,52.3
		S140,117.8,140,88.9S116.6,36.6,87.7,36.6"/>
	<path d="M90.8,75.5c0.6-0.6,0.6-1.6,0-2.2s-1.6-0.6-2.2,0s-0.6,1.6,0,2.2S90.2,76.1,90.8,75.5"/>
	<path d="M85.3,76.6c-0.6,0.6-0.6,1.6,0,2.2s1.6,0.6,2.2,0c0.6-0.6,0.6-1.6,0-2.2C86.9,76,85.9,76,85.3,76.6"/>
	<path d="M94.9,77.4c-0.9-0.9-2.5-0.9-3.5,0l-2,2c-0.9,0.9-0.9,2.5,0,3.5l2.3,2.3c0.9,0.9,2.5,0.9,3.5,0l2-2c0.9-0.9,0.9-2.5,0-3.5
		C97.2,79.6,94.9,77.4,94.9,77.4z"/>
	<path d="M107.4,67.8c-1.6-1.9,1.4-5.5,3.3-3.3C114.2,68.3,109,69.7,107.4,67.8 M114.3,69.8c2.6-4.9-1.1-7.8-3.6-10.2
		c-4-3.8-8.1-5.4-12.7-0.2c-4.6,5.2-1.7,11.3,2.5,14.3S111.7,74.7,114.3,69.8"/>
</g>
<text transform="matrix(1 0 0 1 926.9125 75.2822)" class="st0 st1 st2">PLUGIN</text>
<text transform="matrix(1 0 0 1 421.2285 130.8008)"><tspan x="0" y="0" class="st3 st1 st4">Ad</tspan><tspan x="159.1" y="0" class="st5 st1 st4">Sense</tspan></text>
</svg>
